<svg xmlns="http://www.w3.org/2000/svg" viewBox="0 0 320 220" shape-rendering="crispEdges">
  <rect width="320" height="220" fill="#05090c"/>
  <rect y="150" width="320" height="70" fill="#091612"/>
  <rect x="0" y="130" width="320" height="8" fill="#0d221a"/>
  <rect x="8" y="20" width="20" height="80" fill="#143127"/>
  <rect x="292" y="18" width="20" height="84" fill="#143127"/>
  <rect x="34" y="14" width="10" height="110" fill="#18392d"/>
  <rect x="274" y="16" width="10" height="106" fill="#18392d"/>
  <rect x="80" y="8" width="14" height="126" fill="#12261f"/>
  <rect x="224" y="12" width="14" height="122" fill="#12261f"/>
  <rect x="140" y="20" width="40" height="14" fill="#18392d"/>
  <rect x="132" y="34" width="56" height="16" fill="#0b120f"/>
  <rect x="144" y="50" width="32" height="20" fill="#162a22"/>
  <rect x="148" y="58" width="6" height="8" fill="#f7f0bb"/>
  <rect x="166" y="58" width="6" height="8" fill="#f7f0bb"/>
  <rect x="42" y="128" width="44" height="26" fill="#0d1614"/>
  <rect x="50" y="118" width="28" height="10" fill="#18392d"/>
  <rect x="236" y="128" width="44" height="26" fill="#0d1614"/>
  <rect x="244" y="118" width="28" height="10" fill="#18392d"/>
  <rect x="90" y="92" width="140" height="52" fill="#0b1714"/>
  <rect x="96" y="98" width="128" height="40" fill="#123526"/>
  <rect x="102" y="104" width="116" height="28" fill="#184433"/>
  <rect x="8" y="150" width="32" height="20" fill="#0e1a18"/>
  <rect x="280" y="150" width="32" height="20" fill="#0e1a18"/>
  <rect x="54" y="34" width="6" height="6" fill="#67f5ad"/>
  <rect x="62" y="42" width="4" height="4" fill="#67f5ad"/>
  <rect x="252" y="34" width="6" height="6" fill="#67f5ad"/>
  <rect x="246" y="46" width="4" height="4" fill="#67f5ad"/>
  <rect x="112" y="84" width="8" height="8" fill="#67f5ad"/>
  <rect x="200" y="86" width="8" height="8" fill="#67f5ad"/>
  <rect x="120" y="174" width="80" height="18" fill="#0d1914"/>
  <rect x="126" y="180" width="68" height="6" fill="#194833"/>
</svg>
